<?xml version="1.0" encoding="UTF-8"?>
<svg id="Warstwa_1" data-name="Warstwa 1" xmlns="http://www.w3.org/2000/svg" viewBox="0 0 400 240">
  <defs>
    <style>
      .cls-1 {
        fill: #fff;
      }

      .cls-1, .cls-2 {
        stroke-width: 0px;
      }

      .cls-2 {
        fill: #2a2a2a;
      }
    </style>
  </defs>
  <rect class="cls-2" width="400" height="240"/>
  <g>
    <path class="cls-1" d="m140.82,101.55h5.9l4.06,9.89h.2l4.06-9.89h5.9v17.45h-4.64v-10.09h-.14l-3.89,9.95h-2.8l-3.89-10.02h-.14v10.16h-4.64v-17.45Z"/>
    <path class="cls-1" d="m169.56,119.24c-1.42,0-2.64-.28-3.65-.85-1.01-.57-1.79-1.35-2.33-2.37-.54-1.01-.81-2.19-.81-3.53s.27-2.52.81-3.53c.54-1.01,1.32-1.8,2.33-2.37,1.01-.56,2.23-.85,3.65-.85s2.64.28,3.65.85c1.01.57,1.79,1.36,2.33,2.37.54,1.01.81,2.19.81,3.53s-.27,2.52-.81,3.53c-.54,1.01-1.32,1.8-2.33,2.37-1.01.57-2.23.85-3.65.85Zm.03-3.48c.4,0,.74-.13,1.03-.4.29-.27.51-.65.67-1.14.16-.49.24-1.08.24-1.76s-.08-1.28-.24-1.77c-.16-.49-.38-.87-.67-1.14-.29-.27-.63-.4-1.03-.4-.42,0-.78.13-1.08.4s-.53.65-.69,1.14c-.16.49-.24,1.08-.24,1.77s.08,1.27.24,1.76.39.88.69,1.14.66.4,1.08.4Z"/>
    <path class="cls-1" d="m182.96,111.64v7.36h-4.7v-13.09h4.47v2.49h.14c.28-.83.79-1.48,1.5-1.95.72-.47,1.56-.71,2.52-.71s1.73.21,2.42.63,1.22,1,1.59,1.74c.38.74.56,1.58.56,2.53v8.35h-4.7v-7.36c0-.65-.16-1.16-.49-1.53-.33-.37-.79-.55-1.39-.55-.39,0-.72.08-1.01.25-.29.17-.51.41-.66.72-.15.31-.23.68-.24,1.11Z"/>
    <path class="cls-1" d="m193.77,119v-13.09h4.7v13.09h-4.7Zm2.35-14.45c-.64,0-1.18-.21-1.64-.63-.45-.42-.68-.93-.68-1.52s.23-1.1.68-1.52,1-.63,1.64-.63,1.19.21,1.64.63.68.93.68,1.52-.23,1.1-.68,1.52c-.45.42-1,.63-1.64.63Z"/>
    <path class="cls-1" d="m208.67,105.91v3.41h-8.62v-3.41h8.62Zm-6.95-3.14h4.7v12.02c0,.18.03.33.09.46.06.12.16.21.29.27s.3.09.5.09c.14,0,.31-.02.5-.05.19-.03.33-.06.42-.08l.68,3.31c-.21.06-.51.14-.9.23-.39.09-.85.15-1.38.18-1.08.06-1.99-.06-2.72-.34-.73-.28-1.28-.73-1.65-1.33-.37-.61-.55-1.37-.54-2.28v-12.46Z"/>
    <path class="cls-1" d="m216.88,119.24c-1.42,0-2.64-.28-3.65-.85-1.01-.57-1.79-1.35-2.33-2.37s-.81-2.19-.81-3.53.27-2.52.81-3.53,1.32-1.8,2.33-2.37c1.01-.56,2.23-.85,3.65-.85s2.64.28,3.65.85c1.01.57,1.79,1.36,2.33,2.37.54,1.01.81,2.19.81,3.53s-.27,2.52-.81,3.53c-.54,1.01-1.32,1.8-2.33,2.37s-2.23.85-3.65.85Zm.03-3.48c.4,0,.74-.13,1.03-.4.29-.27.51-.65.67-1.14s.24-1.08.24-1.76-.08-1.28-.24-1.77c-.16-.49-.38-.87-.67-1.14-.29-.27-.63-.4-1.03-.4-.42,0-.78.13-1.08.4-.3.27-.53.65-.69,1.14-.16.49-.24,1.08-.24,1.77s.08,1.27.24,1.76.39.88.69,1.14c.3.27.66.4,1.08.4Z"/>
    <path class="cls-1" d="m225.57,119v-13.09h4.57v2.49h.14c.24-.92.62-1.59,1.14-2.02s1.13-.64,1.83-.64c.21,0,.41.02.61.05.2.03.4.08.58.13v4.01c-.23-.08-.52-.14-.86-.18-.34-.04-.63-.06-.88-.06-.46,0-.87.1-1.24.31-.37.21-.66.5-.87.87s-.32.81-.32,1.31v6.82h-4.7Z"/>
    <path class="cls-1" d="m235.97,119v-13.09h4.7v13.09h-4.7Zm2.35-14.45c-.64,0-1.18-.21-1.64-.63-.46-.42-.68-.93-.68-1.52s.23-1.1.68-1.52c.45-.42,1-.63,1.64-.63s1.19.21,1.64.63c.45.42.68.93.68,1.52s-.23,1.1-.68,1.52c-.45.42-1,.63-1.64.63Z"/>
    <path class="cls-1" d="m247.77,111.64v7.36h-4.7v-13.09h4.47v2.49h.14c.28-.83.79-1.48,1.5-1.95.72-.47,1.56-.71,2.52-.71s1.73.21,2.42.63,1.22,1,1.59,1.74c.38.74.56,1.58.56,2.53v8.35h-4.71v-7.36c0-.65-.16-1.16-.49-1.53s-.79-.55-1.38-.55c-.39,0-.72.08-1.01.25-.29.17-.51.41-.66.72-.15.31-.23.68-.24,1.11Z"/>
    <path class="cls-1" d="m264.88,124.18c-1.31,0-2.44-.19-3.37-.56-.93-.37-1.66-.88-2.17-1.53-.51-.65-.8-1.4-.87-2.24h4.53c.04.28.16.5.34.67s.42.29.7.37.61.12.97.12c.61,0,1.11-.15,1.51-.44.4-.3.6-.83.6-1.6v-2.22h-.14c-.17.44-.43.82-.78,1.13-.35.31-.78.55-1.27.71-.49.16-1.04.24-1.63.24-.93,0-1.79-.22-2.57-.65-.78-.43-1.41-1.12-1.88-2.05s-.7-2.16-.7-3.67.25-2.86.74-3.85c.49-.99,1.13-1.71,1.91-2.17.78-.46,1.6-.69,2.47-.69.65,0,1.22.11,1.71.34.49.22.9.52,1.23.9.33.37.58.78.75,1.22h.1v-2.28h4.71v13.06c0,1.11-.29,2.05-.86,2.83-.57.78-1.37,1.37-2.41,1.78-1.03.41-2.24.61-3.62.61Zm.17-8.69c.43,0,.8-.12,1.11-.36s.55-.59.72-1.04c.17-.45.25-1,.25-1.63s-.08-1.2-.25-1.67c-.17-.46-.41-.82-.72-1.07s-.68-.37-1.11-.37-.8.12-1.1.37c-.3.25-.54.6-.7,1.07-.16.46-.24,1.02-.24,1.67s.08,1.2.24,1.65.39.8.7,1.03c.3.24.67.35,1.1.35Z"/>
    <path class="cls-1" d="m171.11,135.8c-.05-.57-.26-1.01-.64-1.33s-.95-.48-1.72-.48c-.49,0-.89.06-1.2.17-.31.12-.54.27-.69.47-.15.2-.22.43-.23.68-.01.21.03.4.11.57.09.17.23.32.42.45.19.13.44.25.74.36.3.11.66.21,1.07.29l1.43.31c.97.2,1.79.47,2.48.81.69.34,1.25.73,1.69,1.18s.76.96.97,1.52c.21.56.31,1.18.32,1.84,0,1.15-.29,2.12-.86,2.91-.57.8-1.38,1.4-2.43,1.82-1.05.42-2.32.62-3.8.62s-2.84-.22-3.97-.67-2-1.14-2.62-2.08-.94-2.13-.94-3.59h4.5c.03.53.16.98.4,1.35.24.36.58.64,1.01.83s.95.28,1.56.28c.51,0,.93-.06,1.27-.19s.6-.3.78-.52c.18-.22.27-.47.27-.76,0-.27-.09-.5-.26-.7-.17-.2-.44-.38-.82-.55-.38-.16-.89-.31-1.54-.46l-1.74-.38c-1.55-.33-2.76-.9-3.65-1.68-.89-.79-1.33-1.86-1.33-3.22,0-1.11.29-2.08.89-2.91s1.43-1.48,2.5-1.95,2.29-.7,3.67-.7,2.63.24,3.66.71c1.03.47,1.82,1.13,2.38,1.99.56.85.84,1.85.85,3h-4.53Z"/>
    <path class="cls-1" d="m180.63,152.71c-.54,0-1.05-.04-1.54-.12-.49-.08-.92-.19-1.29-.34l1.02-3.34c.39.14.74.22,1.06.26s.6.02.83-.07c.23-.08.4-.25.5-.49l.1-.24-4.6-13.67h4.91l2.11,9.07h.14l2.15-9.07h4.94l-4.77,14.18c-.24.72-.58,1.37-1.04,1.95-.45.58-1.04,1.03-1.78,1.37s-1.65.5-2.74.5Z"/>
    <path class="cls-1" d="m204.25,138.97h-4.33c-.02-.27-.12-.5-.28-.69-.17-.19-.38-.34-.63-.45-.26-.1-.54-.16-.86-.16-.4,0-.75.07-1.04.22-.29.15-.43.36-.43.63,0,.19.08.37.25.54.17.16.51.29,1.01.38l2.66.48c1.34.24,2.34.66,3,1.23s.99,1.35.99,2.31c0,.93-.28,1.74-.83,2.42-.55.68-1.3,1.21-2.24,1.59-.95.37-2.02.56-3.23.56-2,0-3.56-.41-4.69-1.23-1.13-.82-1.76-1.9-1.89-3.24h4.67c.06.42.27.73.62.96.35.22.79.34,1.33.34.43,0,.79-.07,1.07-.22s.42-.36.43-.63c0-.25-.13-.45-.37-.6s-.62-.27-1.13-.36l-2.32-.41c-1.34-.23-2.34-.68-3-1.33-.67-.65-.99-1.49-.99-2.52,0-.91.23-1.68.72-2.31.49-.63,1.18-1.12,2.09-1.45s1.98-.5,3.23-.5c1.89,0,3.38.39,4.48,1.18,1.09.78,1.67,1.87,1.73,3.26Z"/>
    <path class="cls-1" d="m214.21,134.71v3.41h-8.62v-3.41h8.62Zm-6.96-3.14h4.71v12.02c0,.18.03.33.09.46.06.12.16.21.29.27.13.06.3.09.5.09.14,0,.31-.02.5-.05s.33-.06.42-.08l.68,3.31c-.21.06-.51.14-.9.23-.39.09-.85.15-1.38.18-1.08.06-1.99-.06-2.72-.34-.73-.28-1.28-.73-1.65-1.33-.37-.61-.55-1.37-.54-2.28v-12.46Z"/>
    <path class="cls-1" d="m222.39,148.04c-1.4,0-2.6-.27-3.61-.8-1.01-.54-1.78-1.31-2.33-2.32-.54-1.01-.81-2.22-.81-3.63s.27-2.54.82-3.55c.54-1.01,1.32-1.8,2.31-2.36s2.17-.84,3.52-.84c.99,0,1.88.15,2.68.46.8.31,1.49.75,2.05,1.33.57.58,1.01,1.29,1.31,2.12.31.83.46,1.76.46,2.8v1.09h-11.69v-2.59h7.36c0-.38-.1-.71-.29-.99s-.43-.51-.74-.67c-.31-.16-.66-.24-1.05-.24s-.73.08-1.05.24-.57.38-.76.67c-.19.28-.29.62-.3,1v2.8c0,.42.09.8.26,1.12s.43.59.76.78c.33.19.73.28,1.19.28.32,0,.62-.05.89-.14.27-.09.5-.22.69-.4s.33-.38.43-.63h4.3c-.15.91-.5,1.7-1.05,2.37-.55.67-1.28,1.18-2.19,1.55-.91.37-1.96.55-3.17.55Z"/>
    <path class="cls-1" d="m230.71,147.8v-13.09h4.47v2.49h.14c.27-.82.74-1.47,1.4-1.94.66-.48,1.44-.71,2.35-.71s1.71.24,2.38.73c.67.49,1.07,1.13,1.2,1.93h.14c.22-.8.69-1.44,1.42-1.93.72-.49,1.57-.73,2.54-.73,1.26,0,2.27.4,3.06,1.21.78.81,1.17,1.88,1.17,3.22v8.83h-4.71v-7.64c0-.57-.14-1.03-.43-1.35s-.68-.49-1.17-.49-.86.16-1.15.49-.42.78-.42,1.35v7.64h-4.5v-7.64c0-.57-.15-1.03-.44-1.35-.29-.33-.68-.49-1.17-.49-.32,0-.6.07-.83.22-.23.15-.41.36-.54.64-.13.28-.19.6-.19.98v7.64h-4.7Z"/>
  </g>
</svg>