<?xml version="1.0" encoding="UTF-8"?>
<svg id="Warstwa_1" data-name="Warstwa 1" xmlns="http://www.w3.org/2000/svg" viewBox="0 0 400 240">
  <defs>
    <style>
      .cls-1 {
        fill: #51546e;
      }

      .cls-1, .cls-2 {
        stroke-width: 0px;
      }

      .cls-2 {
        fill: #fff;
      }
    </style>
  </defs>
  <rect class="cls-1" width="400" height="240"/>
  <g>
    <path class="cls-2" d="m124.8,118.81h-6.72v-17.45h6.65c1.79,0,3.35.35,4.66,1.04,1.31.7,2.32,1.7,3.03,3,.71,1.3,1.07,2.87,1.07,4.68s-.36,3.38-1.07,4.68c-.71,1.3-1.72,2.3-3.02,3s-2.84,1.04-4.61,1.04Zm-1.98-4.02h1.81c.86,0,1.6-.14,2.21-.42.61-.28,1.08-.76,1.4-1.44.32-.68.48-1.63.48-2.85s-.16-2.17-.49-2.85c-.33-.68-.8-1.16-1.43-1.44s-1.4-.42-2.31-.42h-1.67v9.41Z"/>
    <path class="cls-2" d="m142.01,119.05c-1.4,0-2.6-.27-3.61-.81-1.01-.54-1.78-1.31-2.33-2.32-.54-1.01-.81-2.22-.81-3.63s.27-2.53.82-3.55,1.32-1.8,2.31-2.36,2.17-.84,3.52-.84c.99,0,1.88.15,2.68.46.8.31,1.49.75,2.05,1.33.57.58,1.01,1.29,1.31,2.12.31.83.46,1.76.46,2.8v1.09h-11.69v-2.59h7.36c0-.38-.1-.71-.29-.99-.18-.29-.43-.51-.74-.67-.31-.16-.66-.24-1.05-.24s-.73.08-1.05.24c-.32.16-.57.38-.76.67s-.29.62-.3,1v2.8c0,.42.09.8.26,1.12.18.33.43.59.76.78s.73.28,1.19.28c.32,0,.62-.05.89-.14.27-.09.5-.22.69-.4.19-.17.34-.38.43-.63h4.3c-.15.91-.5,1.7-1.05,2.36-.55.67-1.28,1.18-2.19,1.55-.91.37-1.96.55-3.17.55Z"/>
    <path class="cls-2" d="m163.52,105.72l-4.4,13.09h-5.45l-4.4-13.09h4.94l2.11,8.66h.14l2.11-8.66h4.94Z"/>
    <path class="cls-2" d="m171.13,119.05c-1.4,0-2.6-.27-3.61-.81-1.01-.54-1.78-1.31-2.33-2.32-.54-1.01-.81-2.22-.81-3.63s.27-2.53.82-3.55,1.32-1.8,2.31-2.36,2.17-.84,3.52-.84c.99,0,1.88.15,2.68.46.8.31,1.49.75,2.05,1.33.57.58,1.01,1.29,1.31,2.12.31.83.46,1.76.46,2.8v1.09h-11.69v-2.59h7.36c0-.38-.1-.71-.29-.99-.18-.29-.43-.51-.74-.67-.31-.16-.66-.24-1.05-.24s-.73.08-1.05.24c-.32.16-.57.38-.76.67s-.29.62-.3,1v2.8c0,.42.09.8.26,1.12.18.33.43.59.76.78s.73.28,1.19.28c.32,0,.62-.05.89-.14.27-.09.5-.22.69-.4.19-.17.34-.38.43-.63h4.3c-.15.91-.5,1.7-1.05,2.36-.55.67-1.28,1.18-2.19,1.55-.91.37-1.96.55-3.17.55Z"/>
    <path class="cls-2" d="m184.15,101.36v17.45h-4.7v-17.45h4.7Z"/>
    <path class="cls-2" d="m192.84,119.05c-1.42,0-2.64-.28-3.65-.85-1.01-.57-1.79-1.35-2.33-2.37-.54-1.01-.81-2.19-.81-3.53s.27-2.52.81-3.53c.54-1.01,1.32-1.8,2.33-2.37,1.01-.56,2.23-.85,3.65-.85s2.64.28,3.65.85c1.01.57,1.79,1.36,2.33,2.37.54,1.01.81,2.19.81,3.53s-.27,2.52-.81,3.53c-.54,1.01-1.32,1.8-2.33,2.37-1.01.57-2.23.85-3.65.85Zm.03-3.48c.4,0,.74-.13,1.03-.4.29-.27.51-.65.67-1.14.16-.49.24-1.08.24-1.76s-.08-1.28-.24-1.77c-.16-.49-.38-.87-.67-1.14-.29-.27-.63-.4-1.03-.4-.42,0-.78.13-1.08.4s-.53.65-.69,1.14c-.16.49-.24,1.08-.24,1.77s.08,1.27.24,1.76.39.88.69,1.14.66.4,1.08.4Z"/>
    <path class="cls-2" d="m201.53,123.72v-18h4.67v2.28h.1c.17-.44.42-.85.75-1.22.33-.37.74-.67,1.23-.9.49-.22,1.06-.34,1.7-.34.86,0,1.69.23,2.47.69.78.46,1.42,1.18,1.91,2.17.49.99.74,2.27.74,3.85s-.23,2.76-.7,3.76c-.47.99-1.09,1.74-1.88,2.22s-1.64.73-2.57.73c-.61,0-1.16-.1-1.64-.3-.48-.2-.89-.48-1.23-.83-.34-.35-.6-.75-.78-1.19h-.07v7.06h-4.7Zm4.6-11.45c0,.64.08,1.19.25,1.65.17.46.41.82.72,1.07s.68.38,1.11.38.8-.12,1.1-.37.54-.6.7-1.07c.16-.46.24-1.02.24-1.67s-.08-1.2-.24-1.67c-.16-.46-.4-.82-.7-1.07s-.67-.37-1.1-.37-.8.12-1.11.37-.55.6-.72,1.07c-.17.46-.25,1.02-.25,1.67Z"/>
    <path class="cls-2" d="m217.08,118.81v-13.09h4.47v2.49h.14c.27-.82.74-1.47,1.4-1.94.66-.48,1.44-.72,2.35-.72s1.71.24,2.38.73c.66.49,1.07,1.13,1.2,1.93h.14c.22-.8.69-1.44,1.42-1.93.72-.49,1.57-.73,2.54-.73,1.26,0,2.27.4,3.05,1.21.78.81,1.17,1.88,1.17,3.22v8.83h-4.71v-7.64c0-.57-.14-1.02-.43-1.35s-.68-.49-1.17-.49-.87.16-1.15.49-.42.78-.42,1.35v7.64h-4.5v-7.64c0-.57-.14-1.02-.43-1.35s-.68-.49-1.17-.49c-.32,0-.6.07-.83.22-.23.15-.41.36-.54.64-.13.28-.19.6-.19.98v7.64h-4.71Z"/>
    <path class="cls-2" d="m245.92,119.05c-1.4,0-2.6-.27-3.61-.81-1.01-.54-1.78-1.31-2.33-2.32-.54-1.01-.81-2.22-.81-3.63s.27-2.53.82-3.55c.54-1.01,1.32-1.8,2.31-2.36s2.17-.84,3.52-.84c.99,0,1.88.15,2.68.46.8.31,1.49.75,2.05,1.33.57.58,1.01,1.29,1.31,2.12.31.83.46,1.76.46,2.8v1.09h-11.69v-2.59h7.36c0-.38-.1-.71-.29-.99-.18-.29-.43-.51-.74-.67-.31-.16-.66-.24-1.05-.24s-.73.08-1.05.24c-.32.16-.57.38-.76.67-.19.28-.29.62-.3,1v2.8c0,.42.09.8.26,1.12.18.33.43.59.76.78.33.19.73.28,1.19.28.32,0,.62-.05.89-.14.27-.09.5-.22.69-.4.19-.17.33-.38.43-.63h4.3c-.15.91-.5,1.7-1.05,2.36-.55.67-1.28,1.18-2.19,1.55-.91.37-1.96.55-3.17.55Z"/>
    <path class="cls-2" d="m258.94,111.45v7.36h-4.7v-13.09h4.47v2.49h.14c.28-.83.79-1.48,1.5-1.95.72-.47,1.56-.71,2.52-.71s1.73.21,2.42.63,1.22,1,1.59,1.74c.38.74.56,1.58.56,2.53v8.35h-4.71v-7.36c0-.65-.16-1.16-.49-1.53-.33-.37-.79-.55-1.38-.55-.39,0-.72.08-1.01.25-.29.17-.51.41-.66.72-.15.31-.23.68-.24,1.11Z"/>
    <path class="cls-2" d="m277.56,105.72v3.41h-8.62v-3.41h8.62Zm-6.95-3.14h4.7v12.02c0,.18.03.33.09.46.06.12.16.21.29.27.13.06.3.09.5.09.14,0,.31-.02.5-.05.19-.03.33-.06.42-.08l.68,3.31c-.21.06-.51.14-.9.23-.39.09-.85.15-1.39.18-1.08.06-1.99-.06-2.72-.34-.73-.28-1.28-.73-1.65-1.33s-.55-1.37-.54-2.28v-12.46Z"/>
    <path class="cls-2" d="m162.35,147.61v-17.45h12.27v3.82h-7.53v3h6.78v3.82h-6.78v6.82h-4.74Z"/>
    <path class="cls-2" d="m182.73,147.85c-1.42,0-2.64-.28-3.65-.85-1.01-.57-1.79-1.35-2.33-2.37-.54-1.01-.81-2.19-.81-3.53s.27-2.52.81-3.53c.54-1.01,1.32-1.8,2.33-2.37,1.01-.57,2.23-.85,3.65-.85s2.64.28,3.65.85c1.01.57,1.79,1.36,2.33,2.37.54,1.01.81,2.19.81,3.53s-.27,2.52-.81,3.53c-.54,1.01-1.32,1.8-2.33,2.37-1.01.57-2.23.85-3.65.85Zm.03-3.48c.4,0,.74-.13,1.03-.4.29-.27.51-.65.67-1.14.16-.49.24-1.08.24-1.76s-.08-1.28-.24-1.77c-.16-.49-.38-.87-.67-1.14-.29-.27-.63-.4-1.03-.4-.42,0-.78.13-1.08.4-.3.27-.53.65-.69,1.14s-.24,1.08-.24,1.77.08,1.27.24,1.76.39.88.69,1.14c.3.27.66.4,1.08.4Z"/>
    <path class="cls-2" d="m191.43,147.61v-13.09h4.57v2.49h.14c.24-.92.62-1.59,1.14-2.02.52-.43,1.13-.64,1.83-.64.2,0,.41.02.61.05s.4.08.58.13v4.01c-.23-.08-.52-.14-.86-.18-.34-.04-.63-.06-.88-.06-.46,0-.87.1-1.24.31-.37.21-.65.5-.87.87-.21.37-.31.81-.31,1.31v6.82h-4.7Z"/>
    <path class="cls-2" d="m210.31,141.89v-7.36h4.71v13.09h-4.47v-2.49h-.14c-.28.83-.78,1.49-1.49,1.96s-1.55.7-2.53.7c-.92,0-1.71-.21-2.4-.63s-1.22-1-1.59-1.74c-.38-.74-.57-1.59-.58-2.54v-8.35h4.71v7.36c0,.65.17,1.16.5,1.53s.79.55,1.38.55c.39,0,.73-.08,1.02-.25.29-.17.51-.41.67-.72.16-.31.23-.68.23-1.11Z"/>
    <path class="cls-2" d="m217.4,147.61v-13.09h4.47v2.49h.14c.27-.82.74-1.47,1.4-1.94.66-.48,1.44-.72,2.35-.72s1.71.24,2.38.73c.67.49,1.07,1.13,1.2,1.93h.14c.22-.8.69-1.45,1.42-1.93.72-.49,1.57-.73,2.54-.73,1.26,0,2.27.4,3.06,1.21s1.17,1.88,1.17,3.22v8.83h-4.71v-7.64c0-.57-.14-1.02-.43-1.35-.29-.33-.68-.49-1.17-.49s-.86.16-1.15.49c-.28.33-.42.78-.42,1.35v7.64h-4.5v-7.64c0-.57-.15-1.02-.44-1.35-.29-.33-.68-.49-1.17-.49-.32,0-.6.07-.83.22-.23.15-.41.36-.54.64-.13.28-.19.6-.19.98v7.64h-4.7Z"/>
  </g>
</svg>