<?xml version="1.0" encoding="UTF-8"?>
<svg id="Warstwa_1" data-name="Warstwa 1" xmlns="http://www.w3.org/2000/svg" viewBox="0 0 400 240">
  <defs>
    <style>
      .cls-1 {
        fill: #5bcaac;
      }

      .cls-1, .cls-2 {
        stroke-width: 0px;
      }

      .cls-2 {
        fill: #fff;
      }
    </style>
  </defs>
  <rect class="cls-1" width="400" height="240"/>
  <g>
    <path class="cls-2" d="m186.02,101.35h4.67v11.97c0,1.14-.29,2.14-.86,3-.57.86-1.34,1.53-2.34,2.01-.99.48-2.13.72-3.42.72-1.12,0-2.14-.19-3.07-.58-.93-.39-1.66-1-2.22-1.84s-.82-1.93-.82-3.27h4.74c.02.44.09.81.23,1.11.13.3.32.53.56.68.24.15.54.23.88.23s.65-.08.89-.23c.24-.15.42-.38.55-.69.12-.3.19-.68.2-1.13v-11.97Z"/>
    <path class="cls-2" d="m199.32,119.04c-1.42,0-2.64-.28-3.65-.85-1.01-.57-1.79-1.35-2.33-2.37-.54-1.01-.81-2.19-.81-3.53s.27-2.52.81-3.53c.54-1.01,1.32-1.8,2.33-2.37,1.01-.56,2.23-.85,3.65-.85s2.64.28,3.65.85c1.01.57,1.79,1.36,2.33,2.37.54,1.01.81,2.19.81,3.53s-.27,2.52-.81,3.53c-.54,1.01-1.32,1.8-2.33,2.37-1.01.57-2.23.85-3.65.85Zm.03-3.48c.4,0,.74-.13,1.03-.4.29-.27.51-.65.67-1.14.16-.49.24-1.08.24-1.76s-.08-1.28-.24-1.77c-.16-.49-.38-.87-.67-1.14-.29-.27-.63-.4-1.03-.4-.42,0-.78.13-1.08.4s-.53.65-.69,1.14c-.16.49-.24,1.08-.24,1.77s.08,1.27.24,1.76.39.88.69,1.14.66.4,1.08.4Z"/>
    <path class="cls-2" d="m207.94,118.8v-17.45h4.7v6.65h.07c.17-.44.42-.85.75-1.22.33-.37.74-.67,1.23-.9.49-.22,1.06-.34,1.7-.34.86,0,1.69.23,2.47.69.78.46,1.42,1.18,1.91,2.17.49.99.74,2.27.74,3.85s-.23,2.76-.7,3.76c-.47.99-1.09,1.74-1.88,2.22s-1.64.73-2.57.73c-.61,0-1.16-.1-1.64-.3-.48-.2-.89-.48-1.23-.83-.34-.35-.6-.75-.78-1.19h-.1v2.15h-4.67Zm4.6-6.55c0,.64.08,1.19.25,1.65.17.46.41.82.72,1.07s.68.38,1.11.38.8-.12,1.1-.37c.3-.25.54-.6.7-1.07.16-.46.24-1.02.24-1.67s-.08-1.2-.24-1.67c-.16-.46-.39-.82-.7-1.07-.3-.25-.67-.37-1.1-.37s-.8.12-1.11.37-.55.6-.72,1.07c-.17.46-.25,1.02-.25,1.67Z"/>
    <path class="cls-2" d="m165.59,147.6v-17.45h7.57c1.33,0,2.45.18,3.35.54s1.59.86,2.05,1.52c.46.65.69,1.42.69,2.31,0,.64-.14,1.23-.42,1.75s-.67.97-1.18,1.33c-.51.36-1.1.6-1.77.74v.17c.75.03,1.43.22,2.05.57s1.1.83,1.47,1.44c.36.61.55,1.33.55,2.15,0,.96-.25,1.8-.75,2.55s-1.2,1.33-2.12,1.76c-.92.43-2.01.64-3.27.64h-8.22Zm4.74-10.4h1.94c.42,0,.78-.07,1.1-.2s.57-.32.75-.57c.18-.25.27-.55.27-.91,0-.54-.19-.95-.58-1.24-.39-.29-.88-.43-1.47-.43h-2.01v3.34Zm0,6.61h2.22c.8,0,1.39-.15,1.79-.45.4-.3.6-.74.6-1.33,0-.41-.09-.76-.28-1.04-.19-.29-.45-.5-.8-.65-.34-.15-.76-.22-1.24-.22h-2.28v3.68Z"/>
    <path class="cls-2" d="m187.98,147.84c-1.42,0-2.64-.28-3.65-.85-1.01-.56-1.79-1.35-2.33-2.37-.54-1.01-.81-2.19-.81-3.53s.27-2.52.81-3.53c.54-1.01,1.32-1.8,2.33-2.37,1.01-.57,2.23-.85,3.65-.85s2.64.28,3.65.85c1.01.57,1.79,1.36,2.33,2.37.54,1.01.81,2.19.81,3.53s-.27,2.52-.81,3.53c-.54,1.01-1.32,1.8-2.33,2.37-1.01.57-2.23.85-3.65.85Zm.03-3.48c.4,0,.74-.13,1.03-.4.29-.27.51-.65.67-1.14.16-.49.24-1.08.24-1.76s-.08-1.28-.24-1.77c-.16-.49-.38-.87-.67-1.14-.29-.27-.63-.4-1.03-.4-.42,0-.78.13-1.08.4s-.53.65-.69,1.14-.24,1.08-.24,1.77.08,1.27.24,1.76.39.88.69,1.14.66.4,1.08.4Z"/>
    <path class="cls-2" d="m200.32,147.81c-.83,0-1.57-.14-2.21-.41-.64-.28-1.14-.69-1.5-1.26s-.55-1.28-.55-2.15c0-.72.12-1.33.37-1.84.24-.51.59-.93,1.02-1.25.44-.32.95-.57,1.53-.74.58-.17,1.21-.28,1.89-.33.73-.06,1.32-.13,1.77-.21.45-.08.77-.2.97-.35s.3-.35.3-.6v-.03c0-.34-.13-.6-.39-.79-.26-.18-.6-.27-1.01-.27-.45,0-.81.1-1.09.29-.28.2-.45.5-.51.9h-4.33c.06-.8.31-1.53.76-2.2s1.11-1.21,1.98-1.62c.87-.41,1.95-.61,3.26-.61.94,0,1.78.11,2.52.33s1.38.52,1.9.91c.52.39.92.84,1.2,1.36.28.52.41,1.08.41,1.69v8.96h-4.4v-1.84h-.1c-.26.49-.58.88-.95,1.18-.37.3-.79.52-1.27.66-.47.14-1,.21-1.56.21Zm1.53-2.97c.36,0,.69-.07,1.01-.22s.57-.36.77-.64c.2-.28.3-.62.3-1.01v-1.09c-.12.05-.26.1-.4.14-.14.05-.29.09-.44.13-.16.04-.32.08-.5.11-.17.04-.35.07-.54.09-.36.06-.66.15-.89.28-.23.13-.4.28-.51.47-.11.19-.17.39-.17.62,0,.36.13.64.38.83.26.19.58.29.98.29Z"/>
    <path class="cls-2" d="m210.86,147.6v-13.09h4.57v2.49h.14c.24-.92.62-1.59,1.14-2.02.52-.43,1.13-.64,1.83-.64.21,0,.41.02.61.05.2.03.4.08.58.13v4.01c-.23-.08-.52-.14-.86-.18-.34-.04-.63-.06-.88-.06-.46,0-.87.1-1.24.31s-.66.5-.87.87-.32.81-.32,1.31v6.82h-4.7Z"/>
    <path class="cls-2" d="m225.99,147.77c-.93,0-1.79-.24-2.57-.73-.78-.49-1.41-1.23-1.88-2.22-.47-.99-.7-2.25-.7-3.76s.25-2.86.74-3.85c.49-.99,1.13-1.71,1.91-2.17.78-.46,1.6-.69,2.47-.69.65,0,1.22.11,1.71.34.49.22.9.52,1.23.89.33.37.58.78.75,1.22h.07v-6.65h4.71v17.45h-4.67v-2.15h-.1c-.18.44-.44.84-.78,1.19-.34.35-.75.63-1.23.83-.48.2-1.03.3-1.64.3Zm1.74-3.61c.43,0,.8-.12,1.11-.38.31-.25.55-.61.72-1.07.17-.46.25-1.01.25-1.65s-.08-1.2-.25-1.67c-.17-.46-.41-.82-.72-1.07s-.68-.37-1.11-.37-.8.12-1.1.37c-.3.25-.54.6-.7,1.07s-.24,1.02-.24,1.67.08,1.2.24,1.67.39.82.7,1.07c.3.25.67.37,1.1.37Z"/>
  </g>
</svg>