<?xml version="1.0" encoding="UTF-8"?>
<svg id="Warstwa_1" data-name="Warstwa 1" xmlns="http://www.w3.org/2000/svg" viewBox="0 0 400 240">
  <defs>
    <style>
      .cls-1 {
        fill: #fff;
      }

      .cls-1, .cls-2 {
        stroke-width: 0px;
      }

      .cls-2 {
        fill: #212529;
      }
    </style>
  </defs>
  <rect class="cls-2" width="400" height="240"/>
  <g>
    <path class="cls-1" d="m92.53,118.8v-17.45h7.53c1.3,0,2.43.24,3.4.71s1.73,1.15,2.27,2.04c.54.89.81,1.95.81,3.19s-.28,2.3-.83,3.16c-.55.86-1.33,1.51-2.33,1.94-1,.44-2.16.66-3.49.66h-4.5v-3.68h3.55c.56,0,1.03-.07,1.43-.21.4-.14.7-.36.91-.67.21-.31.32-.71.32-1.2s-.11-.91-.32-1.22-.52-.55-.91-.7c-.39-.15-.87-.23-1.43-.23h-1.67v13.67h-4.74Zm10.23-8.01l4.36,8.01h-5.15l-4.26-8.01h5.05Z"/>
    <path class="cls-1" d="m114.9,119.04c-1.4,0-2.6-.27-3.61-.81-1.01-.54-1.78-1.31-2.33-2.32-.54-1.01-.81-2.22-.81-3.63s.27-2.53.82-3.55,1.32-1.8,2.31-2.36,2.17-.84,3.52-.84c.99,0,1.88.15,2.68.46.8.31,1.49.75,2.05,1.33.57.58,1.01,1.29,1.31,2.12.31.83.46,1.76.46,2.8v1.09h-11.69v-2.59h7.36c0-.38-.1-.71-.29-.99-.18-.29-.43-.51-.74-.67-.31-.16-.66-.24-1.05-.24s-.73.08-1.05.24c-.32.16-.57.38-.76.67s-.29.62-.3,1v2.8c0,.42.09.8.26,1.12.18.33.43.59.76.78s.73.28,1.19.28c.32,0,.62-.05.89-.14.27-.09.5-.22.69-.4.19-.17.34-.38.43-.63h4.3c-.15.91-.5,1.7-1.05,2.36-.55.67-1.28,1.18-2.19,1.55-.91.37-1.96.55-3.17.55Z"/>
    <path class="cls-1" d="m129.52,119.04c-1.42,0-2.64-.28-3.65-.85-1.01-.57-1.79-1.35-2.33-2.37-.54-1.01-.81-2.19-.81-3.53s.27-2.52.81-3.53c.54-1.01,1.32-1.8,2.33-2.37,1.01-.56,2.23-.85,3.65-.85,1.28,0,2.4.23,3.34.69.94.46,1.67,1.12,2.19,1.96.52.84.78,1.83.78,2.97h-4.36c-.06-.69-.26-1.21-.59-1.57-.33-.36-.76-.54-1.28-.54-.41,0-.77.12-1.07.35-.31.24-.55.59-.72,1.07-.17.47-.26,1.07-.26,1.79s.08,1.31.26,1.79c.17.47.41.83.72,1.06.31.24.67.35,1.07.35.35,0,.65-.08.92-.24.27-.16.48-.4.65-.72s.27-.7.3-1.15h4.36c-.02,1.15-.28,2.16-.79,3.01-.51.86-1.23,1.52-2.17,1.98s-2.05.7-3.35.7Z"/>
    <path class="cls-1" d="m144.08,119.04c-1.42,0-2.64-.28-3.65-.85-1.01-.57-1.79-1.35-2.33-2.37-.54-1.01-.81-2.19-.81-3.53s.27-2.52.81-3.53c.54-1.01,1.32-1.8,2.33-2.37,1.01-.56,2.23-.85,3.65-.85s2.64.28,3.65.85c1.01.57,1.79,1.36,2.33,2.37.54,1.01.81,2.19.81,3.53s-.27,2.52-.81,3.53c-.54,1.01-1.32,1.8-2.33,2.37-1.01.57-2.23.85-3.65.85Zm.03-3.48c.4,0,.74-.13,1.03-.4.29-.27.51-.65.67-1.14.16-.49.24-1.08.24-1.76s-.08-1.28-.24-1.77c-.16-.49-.38-.87-.67-1.14-.29-.27-.63-.4-1.03-.4-.42,0-.78.13-1.08.4s-.53.65-.69,1.14c-.16.49-.24,1.08-.24,1.77s.08,1.27.24,1.76.39.88.69,1.14.66.4,1.08.4Z"/>
    <path class="cls-1" d="m152.77,118.8v-13.09h4.47v2.49h.14c.27-.82.74-1.47,1.4-1.94.66-.48,1.44-.72,2.35-.72s1.71.24,2.38.73c.66.49,1.07,1.13,1.2,1.93h.14c.22-.8.69-1.44,1.42-1.93.72-.49,1.57-.73,2.54-.73,1.26,0,2.27.4,3.06,1.21.78.81,1.17,1.88,1.17,3.22v8.83h-4.7v-7.64c0-.57-.15-1.02-.43-1.35-.29-.33-.68-.49-1.17-.49s-.86.16-1.15.49-.42.78-.42,1.35v7.64h-4.5v-7.64c0-.57-.15-1.02-.44-1.35-.29-.33-.68-.49-1.17-.49-.32,0-.6.07-.83.22-.23.15-.41.36-.54.64-.13.28-.19.6-.19.98v7.64h-4.7Z"/>
    <path class="cls-1" d="m175.34,118.8v-13.09h4.47v2.49h.14c.27-.82.74-1.47,1.4-1.94.66-.48,1.44-.72,2.35-.72s1.71.24,2.38.73c.66.49,1.07,1.13,1.2,1.93h.14c.22-.8.69-1.44,1.42-1.93.72-.49,1.57-.73,2.54-.73,1.26,0,2.27.4,3.06,1.21.78.81,1.17,1.88,1.17,3.22v8.83h-4.7v-7.64c0-.57-.15-1.02-.43-1.35-.29-.33-.68-.49-1.17-.49s-.86.16-1.15.49-.42.78-.42,1.35v7.64h-4.5v-7.64c0-.57-.15-1.02-.44-1.35-.29-.33-.68-.49-1.17-.49-.32,0-.6.07-.83.22-.23.15-.41.36-.54.64-.13.28-.19.6-.19.98v7.64h-4.7Z"/>
    <path class="cls-1" d="m204.18,119.04c-1.4,0-2.6-.27-3.61-.81-1.01-.54-1.78-1.31-2.33-2.32-.54-1.01-.81-2.22-.81-3.63s.27-2.53.82-3.55,1.32-1.8,2.31-2.36c.99-.56,2.17-.84,3.52-.84.99,0,1.88.15,2.68.46.8.31,1.49.75,2.05,1.33.57.58,1.01,1.29,1.31,2.12.31.83.46,1.76.46,2.8v1.09h-11.69v-2.59h7.36c0-.38-.1-.71-.29-.99-.18-.29-.43-.51-.74-.67-.31-.16-.66-.24-1.05-.24s-.73.08-1.05.24c-.32.16-.57.38-.76.67s-.29.62-.3,1v2.8c0,.42.09.8.26,1.12s.43.59.76.78c.33.19.73.28,1.19.28.32,0,.62-.05.89-.14s.5-.22.7-.4c.19-.17.33-.38.43-.63h4.29c-.15.91-.5,1.7-1.05,2.36-.55.67-1.28,1.18-2.19,1.55-.91.37-1.96.55-3.17.55Z"/>
    <path class="cls-1" d="m217.2,111.44v7.36h-4.7v-13.09h4.46v2.49h.14c.28-.83.79-1.48,1.5-1.95.72-.47,1.56-.71,2.52-.71s1.73.21,2.42.63c.68.42,1.21,1,1.59,1.74.38.74.56,1.58.56,2.53v8.35h-4.7v-7.36c0-.65-.16-1.16-.49-1.53s-.79-.55-1.38-.55c-.39,0-.72.08-1.01.25-.29.17-.51.41-.66.72-.15.31-.23.68-.24,1.11Z"/>
    <path class="cls-1" d="m232.75,118.97c-.93,0-1.79-.24-2.57-.73s-1.41-1.23-1.88-2.22c-.47-.99-.7-2.25-.7-3.76s.25-2.86.74-3.85c.49-.99,1.13-1.71,1.91-2.17.78-.46,1.6-.69,2.47-.69.65,0,1.22.11,1.71.34.49.22.9.52,1.23.9.33.37.58.78.75,1.22h.07v-6.65h4.71v17.45h-4.67v-2.15h-.1c-.18.44-.44.84-.78,1.19-.34.35-.75.63-1.23.83-.48.2-1.03.3-1.64.3Zm1.74-3.61c.43,0,.8-.13,1.11-.38.31-.25.55-.61.72-1.07.17-.46.25-1.01.25-1.65s-.08-1.2-.25-1.67c-.17-.46-.41-.82-.72-1.07-.31-.25-.68-.37-1.11-.37s-.8.12-1.1.37c-.3.25-.54.6-.7,1.07-.16.46-.24,1.02-.24,1.67s.08,1.2.24,1.67c.16.46.39.82.7,1.07.3.25.67.37,1.1.37Z"/>
    <path class="cls-1" d="m247.13,119.01c-.83,0-1.57-.14-2.21-.41-.64-.28-1.14-.69-1.5-1.26-.36-.56-.55-1.28-.55-2.15,0-.72.12-1.33.37-1.84s.59-.92,1.02-1.25c.44-.32.95-.57,1.53-.74s1.21-.28,1.89-.33c.73-.06,1.32-.13,1.77-.21s.77-.2.97-.35c.2-.15.3-.35.3-.6v-.03c0-.34-.13-.6-.39-.78-.26-.18-.6-.27-1.01-.27-.45,0-.81.1-1.09.29-.28.2-.45.5-.51.9h-4.33c.06-.8.31-1.53.76-2.2.45-.67,1.11-1.21,1.98-1.62.87-.41,1.95-.61,3.25-.61.94,0,1.78.11,2.52.33s1.38.52,1.9.91c.52.39.92.84,1.2,1.36s.41,1.08.41,1.69v8.97h-4.4v-1.84h-.1c-.26.49-.58.88-.95,1.18-.37.3-.79.52-1.27.66s-1,.2-1.56.2Zm1.54-2.97c.36,0,.69-.07,1.01-.22.31-.15.57-.36.77-.64s.3-.62.3-1.01v-1.09c-.12.05-.26.1-.39.14-.14.05-.29.09-.44.13-.16.04-.32.08-.49.11-.17.03-.36.07-.54.09-.36.06-.66.15-.89.28-.23.13-.4.28-.51.47-.11.19-.17.39-.17.62,0,.36.13.64.38.83.26.19.58.29.98.29Z"/>
    <path class="cls-1" d="m265.48,105.71v3.41h-8.62v-3.41h8.62Zm-6.95-3.14h4.7v12.02c0,.18.03.33.09.46.06.12.16.21.29.27.13.06.3.09.5.09.14,0,.31-.02.5-.05.19-.03.33-.06.42-.08l.68,3.31c-.21.06-.51.14-.9.23-.39.09-.85.15-1.39.18-1.08.06-1.99-.06-2.72-.34-.73-.28-1.28-.73-1.65-1.33s-.55-1.37-.54-2.28v-12.46Z"/>
    <path class="cls-1" d="m267.38,118.8v-13.09h4.7v13.09h-4.7Zm2.35-14.45c-.64,0-1.18-.21-1.64-.63-.46-.42-.68-.93-.68-1.52s.23-1.1.68-1.52c.45-.42,1-.63,1.64-.63s1.19.21,1.64.63c.45.42.68.93.68,1.52s-.23,1.1-.68,1.52c-.45.42-1,.63-1.64.63Z"/>
    <path class="cls-1" d="m280.78,119.04c-1.42,0-2.64-.28-3.65-.85-1.01-.57-1.79-1.35-2.33-2.37s-.81-2.19-.81-3.53.27-2.52.81-3.53,1.32-1.8,2.33-2.37c1.01-.56,2.23-.85,3.65-.85s2.64.28,3.65.85c1.01.57,1.79,1.36,2.33,2.37.54,1.01.81,2.19.81,3.53s-.27,2.52-.81,3.53c-.54,1.01-1.32,1.8-2.33,2.37-1.01.57-2.23.85-3.65.85Zm.03-3.48c.4,0,.74-.13,1.03-.4s.51-.65.67-1.14.24-1.08.24-1.76-.08-1.28-.24-1.77c-.16-.49-.38-.87-.67-1.14s-.63-.4-1.03-.4c-.42,0-.78.13-1.08.4-.3.27-.53.65-.69,1.14-.16.49-.24,1.08-.24,1.77s.08,1.27.24,1.76c.16.49.39.88.69,1.14.3.27.66.4,1.08.4Z"/>
    <path class="cls-1" d="m294.18,111.44v7.36h-4.7v-13.09h4.47v2.49h.14c.28-.83.79-1.48,1.5-1.95.72-.47,1.56-.71,2.52-.71s1.73.21,2.42.63,1.22,1,1.59,1.74c.38.74.56,1.58.56,2.53v8.35h-4.71v-7.36c0-.65-.16-1.16-.49-1.53-.33-.37-.79-.55-1.38-.55-.39,0-.72.08-1.01.25-.29.17-.51.41-.66.72-.15.31-.23.68-.24,1.11Z"/>
    <path class="cls-1" d="m316.95,109.97h-4.33c-.02-.27-.12-.5-.28-.69-.16-.19-.38-.34-.63-.45s-.54-.16-.86-.16c-.4,0-.75.07-1.04.22-.29.15-.43.36-.43.63,0,.19.08.37.25.54.17.17.51.29,1.01.38l2.66.48c1.34.24,2.34.65,3,1.23s.99,1.35.99,2.31c0,.93-.28,1.74-.83,2.42s-1.29,1.21-2.24,1.58-2.02.56-3.23.56c-2,0-3.56-.41-4.69-1.23-1.13-.82-1.76-1.9-1.89-3.24h4.67c.06.41.27.73.62.96.35.22.79.34,1.33.34.43,0,.79-.07,1.07-.22s.42-.36.43-.63c0-.25-.13-.45-.37-.6-.24-.15-.62-.27-1.13-.36l-2.32-.41c-1.33-.23-2.33-.68-3-1.33s-.99-1.49-.99-2.52c0-.91.23-1.68.72-2.31.49-.63,1.18-1.12,2.09-1.45s1.98-.5,3.23-.5c1.89,0,3.39.39,4.48,1.18,1.09.78,1.67,1.87,1.73,3.26Z"/>
    <path class="cls-1" d="m169.44,135.6c-.05-.57-.26-1.01-.64-1.33-.38-.32-.95-.48-1.72-.48-.49,0-.89.06-1.2.17s-.54.27-.69.47c-.15.2-.22.43-.23.68-.01.21.03.4.11.57.09.17.23.32.42.45.19.13.44.25.74.36.3.11.66.21,1.07.29l1.43.31c.97.2,1.79.47,2.48.81s1.25.73,1.69,1.18c.44.45.76.96.97,1.52.21.56.31,1.18.32,1.84,0,1.15-.29,2.12-.86,2.91-.57.8-1.38,1.4-2.43,1.82-1.05.42-2.32.62-3.8.62s-2.84-.22-3.97-.67-2-1.14-2.62-2.08-.94-2.13-.94-3.59h4.5c.03.53.16.98.4,1.35.24.36.58.64,1.01.83s.95.28,1.56.28c.51,0,.93-.06,1.27-.19s.6-.3.78-.52c.18-.22.27-.47.27-.76,0-.27-.09-.5-.26-.7-.17-.2-.44-.38-.82-.55-.38-.16-.89-.31-1.54-.46l-1.74-.38c-1.55-.33-2.76-.9-3.65-1.68s-1.33-1.86-1.33-3.23c0-1.11.29-2.08.89-2.91s1.43-1.48,2.5-1.95,2.29-.7,3.67-.7,2.63.24,3.66.71,1.82,1.13,2.38,1.99c.56.86.84,1.85.85,3h-4.53Z"/>
    <path class="cls-1" d="m178.95,152.51c-.54,0-1.05-.04-1.54-.12-.49-.08-.92-.19-1.29-.34l1.02-3.34c.39.14.74.22,1.06.26s.6.02.83-.07c.23-.08.4-.25.5-.49l.1-.24-4.6-13.67h4.91l2.11,9.07h.14l2.15-9.07h4.94l-4.77,14.18c-.24.72-.58,1.37-1.04,1.95-.45.58-1.04,1.03-1.78,1.37s-1.65.5-2.74.5Z"/>
    <path class="cls-1" d="m202.58,138.77h-4.33c-.02-.27-.12-.5-.28-.69-.17-.19-.38-.34-.63-.45-.26-.1-.54-.16-.86-.16-.4,0-.75.07-1.04.22-.29.15-.43.36-.43.63,0,.19.08.37.25.54.17.16.51.29,1.01.38l2.66.48c1.34.24,2.34.66,3,1.23.66.58.99,1.35.99,2.31,0,.93-.28,1.74-.83,2.42-.55.69-1.3,1.21-2.24,1.59-.95.37-2.02.56-3.23.56-2,0-3.56-.41-4.69-1.23-1.13-.82-1.76-1.9-1.89-3.24h4.67c.06.42.27.73.62.96.35.22.79.34,1.33.34.43,0,.79-.07,1.07-.22s.42-.36.43-.63c0-.25-.13-.45-.37-.6-.24-.15-.62-.27-1.13-.36l-2.32-.41c-1.34-.23-2.34-.68-3-1.33-.67-.65-.99-1.49-.99-2.52,0-.91.23-1.68.72-2.31.49-.63,1.18-1.12,2.09-1.45s1.98-.5,3.23-.5c1.89,0,3.38.39,4.48,1.18,1.09.78,1.67,1.87,1.73,3.26Z"/>
    <path class="cls-1" d="m212.53,134.51v3.41h-8.62v-3.41h8.62Zm-6.96-3.14h4.71v12.02c0,.18.03.33.09.46s.16.21.29.27c.13.06.3.09.5.09.14,0,.31-.02.5-.05s.33-.06.42-.08l.68,3.31c-.21.06-.51.14-.9.23-.39.09-.85.15-1.38.18-1.08.06-1.99-.06-2.72-.34-.73-.28-1.29-.73-1.65-1.33-.37-.61-.55-1.37-.54-2.28v-12.46Z"/>
    <path class="cls-1" d="m220.71,147.84c-1.4,0-2.6-.27-3.61-.8-1.01-.54-1.78-1.31-2.33-2.32-.54-1.01-.81-2.22-.81-3.63s.27-2.53.82-3.54,1.32-1.8,2.31-2.36,2.17-.84,3.52-.84c.99,0,1.88.15,2.68.46.8.31,1.49.75,2.05,1.33.57.58,1.01,1.29,1.31,2.12.31.83.46,1.76.46,2.8v1.09h-11.69v-2.59h7.36c0-.38-.1-.71-.29-.99s-.43-.51-.74-.67c-.31-.16-.66-.24-1.05-.24s-.73.08-1.05.24-.57.39-.76.67c-.19.28-.29.62-.3,1v2.8c0,.42.09.8.26,1.12.18.33.43.59.76.78s.73.28,1.19.28c.32,0,.62-.04.89-.14.27-.09.5-.22.69-.4.19-.17.34-.38.43-.63h4.3c-.15.91-.5,1.7-1.05,2.37-.55.67-1.28,1.18-2.19,1.55-.91.37-1.96.55-3.17.55Z"/>
    <path class="cls-1" d="m229.03,147.6v-13.09h4.47v2.49h.14c.27-.82.74-1.47,1.4-1.94.66-.48,1.44-.72,2.35-.72s1.71.24,2.38.73c.66.49,1.06,1.13,1.2,1.93h.14c.22-.8.69-1.44,1.41-1.93.72-.49,1.57-.73,2.54-.73,1.26,0,2.27.4,3.06,1.21s1.17,1.88,1.17,3.22v8.83h-4.71v-7.64c0-.57-.14-1.02-.43-1.35-.29-.33-.68-.49-1.17-.49s-.87.16-1.15.49c-.28.33-.42.78-.42,1.35v7.64h-4.5v-7.64c0-.57-.14-1.02-.44-1.35-.29-.33-.68-.49-1.17-.49-.32,0-.6.07-.83.22-.23.15-.41.36-.54.63-.13.28-.19.6-.19.98v7.64h-4.71Z"/>
  </g>
</svg>